<?xml version="1.0" encoding="UTF-8" standalone="no"?>
<!DOCTYPE svg PUBLIC "-//W3C//DTD SVG 1.1//EN" "http://www.w3.org/Graphics/SVG/1.1/DTD/svg11.dtd">
<svg width="100%" height="100%" viewBox="0 0 1155 1000" version="1.1" xmlns="http://www.w3.org/2000/svg" xmlns:xlink="http://www.w3.org/1999/xlink" xml:space="preserve" xmlns:serif="http://www.serif.com/" style="fill-rule:evenodd;clip-rule:evenodd;stroke-linejoin:round;stroke-miterlimit:2;">
    <g transform="matrix(1.678571,0,0,1.678571,-10,-87.5)">
        <rect x="0" y="0" width="700" height="700" style="fill:url(#_Linear1);"/>
        <g transform="matrix(3.18482,0.278655,-0.278655,3.18482,-2360.391645,-966.034832)">
            <g transform="matrix(0.925053,0,-0,0.925053,66.749788,25.340279)">
                <path d="M911.137,374.135C910.953,374.31 910.331,374.756 910.147,374.927C910.144,374.93 908.351,372.478 908.348,372.481C900.017,380.198 891.235,383.389 878.912,383.389C852.912,383.389 831.812,362.289 831.812,336.289C831.812,310.289 852.912,289.189 878.912,289.189C891.066,289.189 902.197,293.842 910.509,301.352C910.534,301.374 912.799,298.999 912.824,299.021C913.103,299.275 913.93,299.933 913.93,299.933L910.997,302.543L891.577,319.085C891.577,319.085 888.68,316.678 888.308,316.398C883.455,312.744 878.122,313.93 869.112,319.089C855.412,326.989 854.012,332.289 861.912,345.989C869.812,359.689 875.112,361.089 888.812,353.189C890.112,352.489 889.586,352.628 890.586,351.928L908.901,371.944L911.137,374.135Z" style="fill:rgb(231,213,253);"/>
            </g>
            <path d="M908.91,371.953C900.41,380.053 891.512,383.389 878.912,383.389C852.912,383.389 831.812,362.289 831.812,336.289C831.812,310.289 852.912,289.189 878.912,289.189C891.512,289.189 903.012,294.189 911.412,302.189L891.577,319.085C891.577,319.085 888.68,316.678 888.308,316.398C883.455,312.744 878.122,313.93 869.112,319.089C855.412,326.989 854.012,332.289 861.912,345.989C869.812,359.689 875.112,361.089 888.812,353.189C890.112,352.489 889.586,352.628 890.586,351.928L908.91,371.953Z" style="fill:white;"/>
            <g transform="matrix(1.188275,0,0,1.188275,-178.86995,-63.023739)">
                <path d="M926.712,358.189L908.437,339.344C906.737,337.644 906.737,334.944 908.437,333.244L926.712,318.556C930.012,325.156 931.912,328.489 931.912,336.289C931.912,344.089 930.112,351.589 926.712,358.189Z" style="fill:rgb(229,250,220);"/>
            </g>
            <g transform="matrix(1.188275,0,0,1.188275,-178.38306,-64.636287)">
                <path d="M926.757,358.639L907.912,339.389C906.212,337.689 906.212,334.989 907.912,333.289L926.712,318.556C930.012,325.156 931.912,328.489 931.912,336.289C931.912,344.089 930.157,352.039 926.757,358.639Z" style="fill:rgb(1,240,110);"/>
            </g>
        </g>
    </g>
    <defs>
        <linearGradient id="_Linear1" x1="0" y1="0" x2="1" y2="0" gradientUnits="userSpaceOnUse" gradientTransform="matrix(457.509793,-700,700,457.509793,48,700)"><stop offset="0" style="stop-color:rgb(110,2,240);stop-opacity:1"/><stop offset="0.54" style="stop-color:rgb(115,11,241);stop-opacity:1"/><stop offset="1" style="stop-color:rgb(134,44,243);stop-opacity:1"/></linearGradient>
    </defs>
</svg>
